<?xml version="1.0" encoding="utf-8"?><svg viewBox="0 0 189 72" xmlns="http://www.w3.org/2000/svg" xmlns:xlink="http://www.w3.org/1999/xlink"><style>:root>svg{display:none}:root>svg:target{display:block}</style><svg viewBox="0 0 189 72" id="ab-seal-horz" xmlns="http://www.w3.org/2000/svg"><g fill="none" fill-rule="evenodd"><path fill="#015A75" d="M188 61.973V10.027c0-4.71-3.84-8.527-8.576-8.527H65v69h114.424a8.601 8.601 0 0 0 6.064-2.498 8.502 8.502 0 0 0 2.512-6.03"/><path fill="#FFF" d="M10 2h54v68H10a9 9 0 0 1-9-9V11a9 9 0 0 1 9-9z"/><path fill="#015A75" fill-rule="nonzero" d="M179.656 71.5H64V.5h115.656c5.158.006 9.338 4.176 9.344 9.323v52.354c-.006 5.147-4.186 9.317-9.344 9.323zM65.46 70.044h114.196c4.352-.005 7.88-3.524 7.884-7.867V9.823c-.004-4.343-3.532-7.862-7.884-7.867H65.46v68.088z"/><path fill="#015A75" d="M27.938 24.5l-3.042 4.12c-1.525 2.064-1.052 5.718 1.03 7.193l5.642 3.997c.968.687 1.044 1.374.585 2.091l.82.599 2.857-3.885c1.766-2.4 1.612-5.667-1.007-7.538l-5.693-4.072c-.68-.489-.752-1.167-.375-1.923l-.82-.574M33.017 6.5l-4.75 6.34c-2.227 2.973-1.416 8.042 1.628 10.208l7.807 5.532c1.582 1.122 1.79 3.978.637 5.44l.662.48 5.386-7.311c2.418-3.285 2.278-8.138-1.52-10.8l-8.352-5.857c-1.17-.812-1.753-2.212-.78-3.542l-.718-.49M21 47.042h6.263L28.38 50.5h10.237l1.117-3.458H46l-.821-2.542H21.821L21 47.042m3.423 12.108c1.133-.656 1.83-1.618 1.83-2.938 0-2.636-2.19-3.712-4.58-3.712H15v14h6.616c2.824 0 5.816-1.218 5.332-4.424-.287-1.837-1.024-2.27-2.522-2.93l-.003.004zm-6.411-3.97h3.474c2.166 0 2.244 2.985.135 2.985h-3.61v-2.986zm3.874 8.675h-3.874v-3.193h3.874c2.845 0 2.67 3.193 0 3.193z"/><path fill="#015A75" d="M36.423 59.15c1.133-.656 1.83-1.618 1.83-2.938 0-2.636-2.19-3.712-4.58-3.712H27v14h6.616c2.821 0 5.816-1.218 5.332-4.424-.287-1.837-1.024-2.27-2.522-2.93l-.003.004zm-6.4-3.977h3.466c2.166 0 2.244 2.986.135 2.986H30.02l.003-2.986zm3.866 8.68H30.02v-3.19h3.866c2.842 0 2.67 3.192 0 3.192l.003-.003zm18.056-1.775c-.287-1.836-1.024-2.27-2.522-2.928 1.133-.656 1.83-1.618 1.83-2.938 0-2.636-2.19-3.712-4.58-3.712H40v14h6.616c2.821 0 5.816-1.218 5.332-4.424l-.003.002zm-8.913-6.902h3.454c2.166 0 2.244 2.986.135 2.986h-3.6l.01-2.986zm3.865 8.679H43.02v-3.193h3.866c2.842 0 2.67 3.193 0 3.193h.011z"/><path fill="#FFF" fill-rule="nonzero" d="M83.428 33.5l-.65-1.693h-4.54l-.666 1.693H75l4.096-10h2.826L86 33.5h-2.572zm-2.918-7.874l-1.65 4.303h3.301l-1.65-4.303z"/><path fill="#FFF" d="M86 28.509c0-2.97 2.443-5.007 5.598-5.007 1.839-.047 3.546.873 4.4 2.371l-1.925.87c-.479-.848-1.422-1.389-2.46-1.412-1.908 0-3.296 1.346-3.296 3.162 0 1.816 1.388 3.162 3.295 3.162 1.045-.01 1.997-.55 2.475-1.404l1.913.877c-.757 1.202-2.082 2.372-4.4 2.372-3.142 0-5.6-2.019-5.6-4.991zm10 .011c0-2.976 2.444-5.018 5.6-5.018 1.84-.047 3.547.876 4.4 2.377l-1.925.872c-.481-.854-1.43-1.397-2.475-1.416-1.908 0-3.297 1.35-3.297 3.17 0 1.82 1.389 3.17 3.297 3.17 1.044-.011 1.997-.553 2.475-1.408l1.925.855c-.757 1.205-2.083 2.378-4.4 2.378-3.153.024-5.6-2-5.6-4.98z"/><path fill="#FFF" fill-rule="nonzero" d="M113.578 33.492l-1.937-3.541h-1.54v3.54H108V23.5h4.618c2.055 0 3.315 1.362 3.315 3.22 0 1.768-1.095 2.724-2.153 2.966L116 33.5l-2.422-.008zm.2-6.772c0-.84-.636-1.349-1.48-1.349h-2.204v2.697h2.203c.853 0 1.48-.51 1.48-1.348z"/><path fill="#FFF" d="M117 33.5v-10h7v1.873h-4.897v2.113h4.781v1.873h-4.781v2.263h4.886v1.873z"/><path fill="#FFF" fill-rule="nonzero" d="M126 33.5v-10h3.836c3.047 0 5.164 1.993 5.164 5.008 0 3.015-2.122 4.992-5.164 4.992H126zm6.897-4.992c0-1.77-1.061-3.132-3.048-3.132h-1.764v6.248h1.764c1.912 0 3.037-1.423 3.037-3.119l.01.003z"/><path fill="#FFF" d="M137 33.5v-10h2v10zm6.934 0v-8.127H141V23.5h8v1.873h-2.917V33.5zm7.066 0v-10h7v1.873h-4.897v2.113h4.776v1.873h-4.776v2.263h4.886v1.873z"/><path fill="#FFF" fill-rule="nonzero" d="M160 33.5v-10h3.836c3.047 0 5.164 1.993 5.164 5.008 0 3.015-2.122 4.992-5.164 4.992H160zm6.897-4.992c0-1.77-1.061-3.132-3.048-3.132h-1.764v6.248h1.764c1.915 0 3.037-1.423 3.037-3.119l.01.003zM76 50.5v-10h5.056c1.833 0 2.766 1.213 2.766 2.55 0 1.259-.75 2.098-1.656 2.292 1.022.163 1.834 1.2 1.834 2.454 0 1.499-.964 2.699-2.795 2.699L76 50.5zm5.734-7.088c0-.304-.12-.594-.333-.8a1.023 1.023 0 0 0-.79-.29h-2.565v2.18h2.564c.69 0 1.121-.45 1.121-1.08l.003-.01zm.186 4.09c0-.63-.432-1.17-1.239-1.17h-2.635v2.322h2.635c.77 0 1.24-.439 1.24-1.153z"/><path fill="#FFF" d="M86 46.405V40.5h2.168v5.833c0 1.368.813 2.311 2.339 2.311s2.325-.943 2.325-2.311V40.5H95v5.892c0 2.445-1.46 4.108-4.485 4.108C87.49 50.5 86 48.82 86 46.405zm11 2.549l1.12-1.567a4.27 4.27 0 0 0 3.09 1.306c1.137 0 1.691-.527 1.691-1.074 0-.71-.903-.912-1.966-1.173-1.59-.362-3.628-.792-3.628-3.002 0-1.61 1.4-2.944 3.686-2.944 1.545 0 2.828.464 3.79 1.348l-1.153 1.511a4.185 4.185 0 0 0-2.827-1.055c-.888 0-1.384.393-1.384.971 0 .625.888.826 1.937 1.074 1.59.377 3.644.857 3.644 3.046 0 1.77-1.267 3.105-3.89 3.105-1.866-.018-3.206-.633-4.11-1.546zm10 1.546v-10h2v10zm10.94 0l-4.798-6.521V50.5H111v-10h2.194l4.664 6.27V40.5H120v10zm4.06 0v-10h7v1.873h-4.897v2.113h4.781v1.873h-4.781v2.263h4.884v1.873zm8-1.546l1.12-1.567a4.264 4.264 0 0 0 3.086 1.306c1.136 0 1.69-.527 1.69-1.074 0-.71-.903-.912-1.965-1.173-1.588-.362-3.624-.792-3.624-3.002 0-1.61 1.398-2.944 3.682-2.944 1.544 0 2.825.464 3.786 1.348l-1.144 1.511a4.18 4.18 0 0 0-2.824-1.055c-.887 0-1.382.393-1.382.971 0 .625.89.826 1.935 1.074 1.588.377 3.64.857 3.64 3.046 0 1.77-1.265 3.105-3.886 3.105-1.864-.018-3.203-.633-4.114-1.546zm10 0l1.12-1.567a4.27 4.27 0 0 0 3.09 1.306c1.137 0 1.691-.527 1.691-1.074 0-.71-.903-.912-1.966-1.173-1.59-.362-3.628-.792-3.628-3.002 0-1.61 1.4-2.944 3.686-2.944 1.545 0 2.828.464 3.79 1.348l-1.153 1.511a4.187 4.187 0 0 0-2.827-1.055c-.888 0-1.384.393-1.384.971 0 .625.89.826 1.937 1.074 1.59.377 3.644.857 3.644 3.046 0 1.77-1.267 3.105-3.89 3.105-1.868-.018-3.209-.633-4.11-1.546z"/><path fill="#015A75" fill-rule="nonzero" d="M66 71.5H9.387C4.205 71.494.007 67.324 0 62.177V9.823C.006 4.676 4.205.506 9.387.5H66v71zM9.387 1.956c-4.373.005-7.916 3.524-7.92 7.867v52.354c.004 4.343 3.547 7.862 7.92 7.867h55.147V1.956H9.387z"/></g></svg><svg viewBox="0 0 32 32" id="facebook" xmlns="http://www.w3.org/2000/svg"><defs><path id="abb" d="M18.206 10.427h2.32V7H17.8v.012c-3.304.117-3.981 1.975-4.04 3.926h-.008v1.71h-2.25v3.357h2.25V25h3.391v-8.995h2.778l.536-3.356h-3.313v-1.034c0-.66.439-1.188 1.063-1.188z"/><filter id="aba" width="133.2%" height="116.7%" x="-16.6%" y="-8.3%" filterUnits="objectBoundingBox"><feOffset in="SourceAlpha" result="shadowOffsetOuter1"/><feGaussianBlur in="shadowOffsetOuter1" result="shadowBlurOuter1" stdDeviation=".5"/><feColorMatrix in="shadowBlurOuter1" values="0 0 0 0 0 0 0 0 0 0 0 0 0 0 0 0 0 0 0.08 0"/></filter></defs><g fill="none"><path fill="#FFF" d="M15.963 0c8.816 0 15.962 7.147 15.962 15.963 0 8.816-7.146 15.962-15.962 15.962C7.146 31.925 0 24.78 0 15.963 0 7.147 7.146 0 15.963 0z"/><use fill="#000" filter="url(#aba)" xlink:href="#abb"/><use fill="#212121" xlink:href="#abb"/></g></svg><svg viewBox="0 0 6 13" id="ic-about" xmlns="http://www.w3.org/2000/svg"><path fill="#212121" d="M1.29 10.771h.508V7.104H1.29a.508.508 0 0 1-.508-.508V5.383c0-.28.228-.508.508-.508h2.844c.28 0 .508.227.508.508v5.388h.507c.28 0 .508.228.508.508v1.213c0 .28-.227.508-.508.508H1.29a.508.508 0 0 1-.508-.508V11.28c0-.28.228-.508.508-.508zM3.22 0a1.828 1.828 0 1 0 0 3.656A1.828 1.828 0 0 0 3.22 0z"/></svg><svg viewBox="0 0 13 16" id="ic-apple" xmlns="http://www.w3.org/2000/svg"><defs><filter id="ada" width="109.1%" height="126.7%" x="-4.5%" y="-13.3%" filterUnits="objectBoundingBox"><feOffset dy="1" in="SourceAlpha" result="shadowOffsetOuter1"/><feGaussianBlur in="shadowOffsetOuter1" result="shadowBlurOuter1" stdDeviation=".5"/><feColorMatrix in="shadowBlurOuter1" result="shadowMatrixOuter1" values="0 0 0 0 0 0 0 0 0 0 0 0 0 0 0 0 0 0 0.16 0"/><feMerge><feMergeNode in="shadowMatrixOuter1"/><feMergeNode in="SourceGraphic"/></feMerge></filter></defs><path fill="#FFF" fill-opacity=".5" d="M9.941 10.308a7.094 7.094 0 0 1-.648 1.238c-.34.516-.62.873-.835 1.071-.333.326-.69.492-1.073.502-.274 0-.606-.083-.991-.251-.387-.168-.742-.25-1.067-.25-.34 0-.706.082-1.097.25-.392.168-.707.256-.948.264-.367.017-.733-.155-1.098-.515-.233-.216-.524-.585-.873-1.11A7.864 7.864 0 0 1 .388 9.56 7.528 7.528 0 0 1 0 7.24c0-.858.175-1.598.524-2.218a3.18 3.18 0 0 1 1.098-1.179 2.826 2.826 0 0 1 1.484-.445c.292 0 .674.096 1.148.284.474.189.778.285.911.285.1 0 .437-.112 1.01-.335.541-.207.998-.293 1.372-.26 1.014.088 1.776.512 2.283 1.277-.907.584-1.356 1.401-1.347 2.45.009.816.288 1.496.836 2.036.249.25.526.444.835.581a9.955 9.955 0 0 1-.213.593zM7.615.59c0 .64-.22 1.238-.66 1.791-.529.658-1.17 1.038-1.865.978a2.114 2.114 0 0 1-.014-.242c0-.615.252-1.273.7-1.81.223-.273.507-.499.852-.68.343-.177.669-.276.974-.293.01.086.013.171.013.256z" filter="url(#ada)" transform="translate(1)"/></svg><svg viewBox="0 0 11 14" id="ic-apple-blue" xmlns="http://www.w3.org/2000/svg"><path fill="#3981E5" d="M9.941 10.308a7.094 7.094 0 0 1-.648 1.238c-.34.516-.62.873-.835 1.071-.333.326-.69.492-1.073.502-.274 0-.606-.083-.991-.251-.387-.168-.742-.25-1.067-.25-.34 0-.706.082-1.097.25-.392.168-.707.256-.948.264-.367.017-.733-.155-1.098-.515-.233-.216-.524-.585-.873-1.11A7.864 7.864 0 0 1 .388 9.56 7.528 7.528 0 0 1 0 7.24c0-.858.175-1.598.524-2.218a3.18 3.18 0 0 1 1.098-1.179 2.826 2.826 0 0 1 1.484-.445c.292 0 .674.096 1.148.284.474.189.778.285.911.285.1 0 .437-.112 1.01-.335.541-.207.998-.293 1.372-.26 1.014.088 1.776.512 2.283 1.277-.907.584-1.356 1.401-1.347 2.45.009.816.288 1.496.836 2.036.249.25.526.444.835.581a9.955 9.955 0 0 1-.213.593zM7.615.59c0 .64-.22 1.238-.66 1.791-.529.658-1.17 1.038-1.865.978a2.114 2.114 0 0 1-.014-.242c0-.615.252-1.273.7-1.81.223-.273.507-.499.852-.68.343-.177.669-.276.974-.293.01.086.013.171.013.256z"/></svg><svg viewBox="0 0 15 14" id="ic-apps" xmlns="http://www.w3.org/2000/svg"><g fill="none" fill-rule="evenodd"><path d="M-4.218-5h24v24h-24z"/><path fill="#212121" fill-rule="nonzero" d="M.782 3.5h3.5V0h-3.5v3.5zM6.032 14h3.5v-3.5h-3.5V14zm-5.25 0h3.5v-3.5h-3.5V14zm0-5.25h3.5v-3.5h-3.5v3.5zm5.25 0h3.5v-3.5h-3.5v3.5zM11.282 0v3.5h3.5V0h-3.5zm-5.25 3.5h3.5V0h-3.5v3.5zm5.25 5.25h3.5v-3.5h-3.5v3.5zm0 5.25h3.5v-3.5h-3.5V14z"/></g></svg><svg viewBox="0 0 24 40" id="ic-arrow-right" xmlns="http://www.w3.org/2000/svg"><g fill="none" fill-rule="evenodd"><path fill="#212121" fill-opacity=".48" d="M0 0h24v40H0z"/><path fill="#FFF" fill-rule="nonzero" d="M9 24.59L13.58 20 9 15.41 10.41 14l6 6-6 6z"/></g></svg><svg viewBox="0 0 24 24" id="ic-arrow-right-white" xmlns="http://www.w3.org/2000/svg"><g fill="none" fill-rule="evenodd"><path fill="#FFF" fill-rule="nonzero" d="M8.59 16.59L13.17 12 8.59 7.41 10 6l6 6-6 6z"/><path d="M0 0h24v24H0z"/></g></svg><svg viewBox="0 0 13 17" id="ic-bookmark" xmlns="http://www.w3.org/2000/svg"><g fill="none" fill-rule="evenodd"><path d="M-3-4h18.752v24.062H-3z"/><path fill="#737373" fill-rule="nonzero" d="M11.057.01c.134 0 .262.034.384.101.191.097.344.25.457.459.114.209.17.44.17.694v14.423c0 .254-.056.485-.17.694a1.065 1.065 0 0 1-.457.459.795.795 0 0 1-.384.09c-.28 0-.52-.12-.724-.359l-3.845-4.744-3.846 4.744c-.21.246-.45.37-.724.37a.785.785 0 0 1-.384-.101 1.065 1.065 0 0 1-.457-.46 1.43 1.43 0 0 1-.17-.693V1.264c0-.254.056-.485.17-.694.113-.209.266-.362.457-.459.123-.067.25-.1.384-.1h9.139z"/></g></svg><svg viewBox="0 0 13 12" id="ic-dl" xmlns="http://www.w3.org/2000/svg"><path fill="#FFF" fill-opacity=".5" d="M5.154 0h1.914c.318 0 .574.256.574.574v4.02H9.74c.426 0 .639.514.337.816L6.438 9.05a.464.464 0 0 1-.653 0L2.141 5.41a.478.478 0 0 1 .338-.816h2.1V.574c0-.318.256-.574.575-.574zm7.096 8.574v2.68a.573.573 0 0 1-.574.574H.574A.573.573 0 0 1 0 11.254v-2.68C0 8.256.256 8 .574 8h3.51l1.172 1.172a1.227 1.227 0 0 0 1.738 0L8.166 8h3.51c.318 0 .574.256.574.574zM9.957 11.48a.48.48 0 0 0-.478-.48.48.48 0 0 0-.479.479.48.48 0 0 0 .479.478.48.48 0 0 0 .478-.478zm1 0a.48.48 0 0 0-.478-.479.48.48 0 0 0-.479.479.48.48 0 0 0 .479.478.48.48 0 0 0 .478-.478z"/></svg><svg viewBox="0 0 15 13" id="ic-features-menu" xmlns="http://www.w3.org/2000/svg"><g fill="none" fill-rule="evenodd"><path d="M-4.218-6h24v24h-24z"/><path fill="#212121" fill-rule="nonzero" d="M.782 12.727h2.546V5.091H.782v7.636zm14-7c0-.7-.573-1.272-1.273-1.272H9.5l.637-2.928v-.19c0-.255-.128-.51-.255-.7L9.182 0l-4.2 4.2c-.254.19-.382.51-.382.89v6.365c0 .7.573 1.272 1.273 1.272H11.6c.51 0 .955-.318 1.146-.763l1.909-4.519c.064-.127.064-.318.064-.445V5.727h.063c0 .064 0 0 0 0z"/></g></svg><svg viewBox="0 0 14 16" id="ic-flame-menu" xmlns="http://www.w3.org/2000/svg"><g fill="none" fill-rule="evenodd"><path d="M-5.218-4h24v24h-24z"/><path fill="#212121" fill-rule="nonzero" d="M3.262 14.554c-.754-.834-1.508-1.702-1.987-2.737a6.059 6.059 0 0 1-.377-3.572A7.616 7.616 0 0 1 2.474 4.94c-.069.835.24 1.703.822 2.337-.343-1.602.206-3.338 1.302-4.606C5.694 1.402 7.202.567 8.778 0c-.788.801-.891 2.07-.583 3.138.309 1.068.96 2.003 1.542 2.97.582.969 1.13 1.97 1.165 3.072.308-.568.65-1.135.856-1.77.206-.634.309-1.301.137-1.936a4.9 4.9 0 0 1 1.13 2.404c.172.935.138 1.903.035 2.837-.137 1.035-.41 2.103-.993 2.971-.686 1.035-1.782 1.77-2.981 2.17-2.124.367-4.214.067-5.824-1.302z"/><path fill="#FFF" fill-rule="nonzero" d="M5.887 15.786c2.725 1.091 5.417-2.216 3.922-4.774 0-.034-.034-.034-.034-.068.133 1.398-.199 2.421-.83 3 .332-.818.1-1.772-.3-2.59-.398-.785-.963-1.501-1.395-2.251-.432-.784-.765-1.671-.565-2.558-.798.614-1.363 1.535-1.596 2.524-.232.988-.1 2.08.333 3-.499-.375-.864-.989-.898-1.636-.531.647-.864 1.5-.83 2.352 0 1.33 1.03 2.524 2.193 3z"/></g></svg><svg viewBox="0 0 32 32" id="ic-footer-insta" xmlns="http://www.w3.org/2000/svg"><g fill="none" fill-rule="evenodd"><circle cx="16" cy="16" r="16" fill="#FFF"/><g fill="#212121" fill-rule="nonzero"><path d="M20.4 6h-8.91A5.495 5.495 0 0 0 6 11.489V20.4a5.495 5.495 0 0 0 5.489 5.489H20.4a5.495 5.495 0 0 0 5.489-5.49V11.49A5.495 5.495 0 0 0 20.4 6zm3.725 14.4a3.728 3.728 0 0 1-3.724 3.725h-8.912A3.728 3.728 0 0 1 7.765 20.4v-8.912a3.728 3.728 0 0 1 3.724-3.724H20.4a3.729 3.729 0 0 1 3.724 3.724V20.4z"/><path d="M15.945 10.82a5.13 5.13 0 0 0-5.125 5.125 5.13 5.13 0 0 0 5.125 5.125 5.13 5.13 0 0 0 5.125-5.125 5.13 5.13 0 0 0-5.125-5.125zm0 8.485a3.364 3.364 0 0 1-3.36-3.36 3.364 3.364 0 0 1 3.36-3.36 3.364 3.364 0 0 1 3.36 3.36 3.364 3.364 0 0 1-3.36 3.36zm5.34-9.981a1.3 1.3 0 0 0-1.294 1.294c0 .34.139.674.38.915.24.24.574.379.914.379.341 0 .674-.139.915-.379.241-.241.379-.575.379-.915a1.3 1.3 0 0 0-.379-.916 1.3 1.3 0 0 0-.915-.378z"/></g></g></svg><svg viewBox="0 0 32 32" id="ic-footer-insta_2" xmlns="http://www.w3.org/2000/svg"><g fill="none" fill-rule="evenodd"><circle cx="16" cy="16" r="16" fill="#FFF"/><g fill="#212121" fill-rule="nonzero"><path d="M20.4 6h-8.91A5.495 5.495 0 0 0 6 11.489V20.4a5.495 5.495 0 0 0 5.489 5.489H20.4a5.495 5.495 0 0 0 5.489-5.49V11.49A5.495 5.495 0 0 0 20.4 6zm3.725 14.4a3.728 3.728 0 0 1-3.724 3.725h-8.912A3.728 3.728 0 0 1 7.765 20.4v-8.912a3.728 3.728 0 0 1 3.724-3.724H20.4a3.729 3.729 0 0 1 3.724 3.724V20.4z"/><path d="M15.945 10.82a5.13 5.13 0 0 0-5.125 5.125 5.13 5.13 0 0 0 5.125 5.125 5.13 5.13 0 0 0 5.125-5.125 5.13 5.13 0 0 0-5.125-5.125zm0 8.485a3.364 3.364 0 0 1-3.36-3.36 3.364 3.364 0 0 1 3.36-3.36 3.364 3.364 0 0 1 3.36 3.36 3.364 3.364 0 0 1-3.36 3.36zm5.34-9.981a1.3 1.3 0 0 0-1.294 1.294c0 .34.139.674.38.915.24.24.574.379.914.379.341 0 .674-.139.915-.379.241-.241.379-.575.379-.915a1.3 1.3 0 0 0-.379-.916 1.3 1.3 0 0 0-.915-.378z"/></g></g></svg><svg viewBox="0 0 32 32" id="ic-footer-pinterest" xmlns="http://www.w3.org/2000/svg"><g fill="none"><circle cx="15.886" cy="15.887" r="15.886" fill="#FFF"/><path fill="#212121" d="M17.169 21.273c-1.201-.092-1.706-.688-2.648-1.26-.517 2.716-1.15 5.32-3.024 6.68-.58-4.105.85-7.188 1.512-10.461-1.13-1.903.136-5.733 2.52-4.79 2.935 1.16-2.54 7.076 1.136 7.815 3.837.772 5.404-6.658 3.024-9.075-3.439-3.49-10.009-.08-9.2 4.915.196 1.222 1.458 1.592.503 3.277-2.2-.487-2.857-2.223-2.773-4.537.137-3.787 3.404-6.44 6.68-6.806 4.145-.464 8.035 1.521 8.572 5.42.604 4.4-1.871 9.165-6.302 8.822z"/></g></svg><svg viewBox="0 0 32 32" id="ic-footer-pinterest_2" xmlns="http://www.w3.org/2000/svg"><g fill="none"><circle cx="15.886" cy="15.887" r="15.886" fill="#FFF"/><path fill="#212121" d="M17.169 21.273c-1.201-.092-1.706-.688-2.648-1.26-.517 2.716-1.15 5.32-3.024 6.68-.58-4.105.85-7.188 1.512-10.461-1.13-1.903.136-5.733 2.52-4.79 2.935 1.16-2.54 7.076 1.136 7.815 3.837.772 5.404-6.658 3.024-9.075-3.439-3.49-10.009-.08-9.2 4.915.196 1.222 1.458 1.592.503 3.277-2.2-.487-2.857-2.223-2.773-4.537.137-3.787 3.404-6.44 6.68-6.806 4.145-.464 8.035 1.521 8.572 5.42.604 4.4-1.871 9.165-6.302 8.822z"/></g></svg><svg viewBox="0 0 18 16" id="ic-heart" xmlns="http://www.w3.org/2000/svg"><path fill="#4A4A4A" stroke="#4A4A4A" d="M15.48 2.305a4.39 4.39 0 0 0-3.128-1.295A4.4 4.4 0 0 0 9.22 2.308l-.438.438-.444-.444A4.411 4.411 0 0 0 5.203 1c-1.18 0-2.292.461-3.126 1.295A4.383 4.383 0 0 0 .782 5.427c0 1.183.465 2.292 1.302 3.129l6.366 6.366a.457.457 0 0 0 .644.003l6.38-6.356a4.4 4.4 0 0 0 1.298-3.132 4.38 4.38 0 0 0-1.291-3.132zm-.65 5.617l-6.058 6.034-6.044-6.044a3.49 3.49 0 0 1-1.03-2.485c0-.939.362-1.82 1.027-2.481a3.485 3.485 0 0 1 2.478-1.027 3.5 3.5 0 0 1 2.488 1.03l.766.766c.18.18.468.18.647 0l.76-.76a3.496 3.496 0 0 1 2.484-1.03c.936 0 1.817.367 2.482 1.028a3.487 3.487 0 0 1 1.027 2.484 3.473 3.473 0 0 1-1.027 2.485z"/></svg><svg viewBox="0 0 20 15" id="ic-home" xmlns="http://www.w3.org/2000/svg"><path fill="#212121" d="M16.88 9.26v4.726a.79.79 0 0 1-.792.792H12.26a.397.397 0 0 1-.395-.396v-3.694a.397.397 0 0 0-.396-.396H9.095a.397.397 0 0 0-.396.396v3.694a.397.397 0 0 1-.396.396H4.477a.79.79 0 0 1-.792-.792V9.26c0-.119.053-.23.145-.307l6.202-5.106a.402.402 0 0 1 .504 0l6.202 5.106a.403.403 0 0 1 .141.307zm2.757-2.01L16.88 4.978V.409a.397.397 0 0 0-.395-.396h-1.848a.397.397 0 0 0-.395.396v2.395L11.288.373a1.582 1.582 0 0 0-2.012 0L.927 7.25a.397.397 0 0 0-.052.558l.84 1.022c.14.169.39.192.558.053l7.759-6.39a.402.402 0 0 1 .504 0l7.759 6.39a.397.397 0 0 0 .557-.053l.841-1.022a.397.397 0 0 0-.056-.558z"/></svg><svg viewBox="0 0 28 28" id="ic-login" xmlns="http://www.w3.org/2000/svg"><g fill="none" fill-rule="evenodd"><path d="M4 2h24v24H4z"/><path fill="#FFF" fill-rule="nonzero" d="M8.563 1.11A13.672 13.672 0 0 1 14 0c1.896 0 3.708.37 5.438 1.11 1.729.739 3.218 1.734 4.468 2.984s2.245 2.74 2.985 4.468A13.704 13.704 0 0 1 28 14c0 1.885-.367 3.693-1.102 5.422-.734 1.73-1.726 3.219-2.976 4.469-1.25 1.25-2.74 2.247-4.469 2.992A13.641 13.641 0 0 1 14 28c-1.906 0-3.724-.37-5.453-1.11-1.73-.739-3.216-1.736-4.461-2.992-1.245-1.255-2.237-2.744-2.977-4.468A13.63 13.63 0 0 1 0 14c0-1.896.37-3.708 1.11-5.438.739-1.729 1.734-3.218 2.984-4.468s2.74-2.245 4.468-2.985zm15.109 20C25.224 18.973 26 16.603 26 14a11.68 11.68 0 0 0-.953-4.656c-.636-1.48-1.49-2.755-2.563-3.828-1.073-1.073-2.349-1.927-3.828-2.563A11.675 11.675 0 0 0 14 2a11.68 11.68 0 0 0-4.656.953c-1.48.636-2.755 1.49-3.828 2.563-1.073 1.073-1.927 2.349-2.563 3.828A11.675 11.675 0 0 0 2 14c0 2.604.776 4.974 2.328 7.11C5.016 17.702 6.61 16 9.11 16c1.365 1.333 2.995 2 4.891 2s3.526-.667 4.89-2c2.5 0 4.094 1.703 4.782 5.11zm-5.438-5.86C17.068 16.417 15.656 17 14 17c-1.656 0-3.07-.586-4.242-1.758C8.586 14.07 8 12.656 8 11c0-1.656.586-3.07 1.758-4.242C10.93 5.586 12.344 5 14 5c1.656 0 3.07.586 4.242 1.758C19.414 7.93 20 9.344 20 11c0 1.656-.589 3.073-1.766 4.25z"/></g></svg><svg viewBox="0 0 20 14" id="ic-menu" xmlns="http://www.w3.org/2000/svg"><g fill="none" fill-rule="evenodd"><path d="M-2-5h24v24H-2z"/><path fill="#FFF" fill-rule="nonzero" d="M0 13.333h20v-2.222H0v2.222zm0-5.555h20V5.556H0v2.222zM0 0v2.222h20V0H0z"/></g></svg><svg viewBox="0 0 16 12" id="ic-news-menu" xmlns="http://www.w3.org/2000/svg"><g fill="none" fill-rule="evenodd"><path d="M-4.218-6h24v24h-24z"/><path fill="#212121" fill-rule="nonzero" d="M8.893 5.407h4.731v1.014h-4.73V5.407zm0-1.69h4.731v1.014h-4.73V3.717zm0 3.38h4.731v1.014h-4.73V7.097zM14.3 0H2.134C1.391 0 .782.608.782 1.352v8.787c0 .743.609 1.351 1.352 1.351H14.3c.744 0 1.352-.608 1.352-1.351V1.352C15.652.608 15.044 0 14.3 0zm0 10.139H8.217V1.352H14.3v8.787z"/></g></svg><svg viewBox="0 0 12 12" id="ic-related-apps" xmlns="http://www.w3.org/2000/svg"><path d="M4.358 0H.642A.643.643 0 0 0 0 .642v3.716C0 4.712.288 5 .642 5h3.716A.643.643 0 0 0 5 4.358V.642A.643.643 0 0 0 4.358 0zm3.284 5h3.716A.643.643 0 0 0 12 4.358V.642A.643.643 0 0 0 11.358 0H7.642A.643.643 0 0 0 7 .642v3.716c0 .354.288.642.642.642zM4.358 7H.642A.643.643 0 0 0 0 7.642v3.716c0 .354.288.642.642.642h3.716A.643.643 0 0 0 5 11.358V7.642A.643.643 0 0 0 4.358 7zm7.285 2.143H9.857V7.357a.357.357 0 0 0-.714 0v1.786H7.357a.357.357 0 0 0 0 .714h1.786v1.786a.357.357 0 0 0 .714 0V9.857h1.786a.357.357 0 0 0 0-.714z" fill="#737373"/></svg><svg viewBox="0 0 24 24" id="ic-search" xmlns="http://www.w3.org/2000/svg"><defs><filter id="awa" width="101.6%" height="132%" x="-.8%" y="-16%" filterUnits="objectBoundingBox"><feOffset dy="2" in="SourceAlpha" result="shadowOffsetOuter1"/><feGaussianBlur in="shadowOffsetOuter1" result="shadowBlurOuter1" stdDeviation="1"/><feColorMatrix in="shadowBlurOuter1" result="shadowMatrixOuter1" values="0 0 0 0 0 0 0 0 0 0 0 0 0 0 0 0 0 0 0.16 0"/><feMerge><feMergeNode in="shadowMatrixOuter1"/><feMergeNode in="SourceGraphic"/></feMerge></filter></defs><g fill="none" fill-rule="evenodd" filter="url(#awa)" transform="translate(-657 -15)"><path fill="#FFF" fill-rule="nonzero" d="M672.93 27.258h-.88l-.313-.301a7.211 7.211 0 0 0 1.75-4.714 7.243 7.243 0 1 0-7.244 7.244 7.211 7.211 0 0 0 4.714-1.75l.3.312v.88l5.573 5.561 1.66-1.66-5.56-5.572zm-6.687 0a5.008 5.008 0 0 1-5.014-5.015 5.008 5.008 0 0 1 5.014-5.014 5.008 5.008 0 0 1 5.015 5.014 5.008 5.008 0 0 1-5.015 5.015z"/><path d="M657 13h24v24h-24z"/></g></svg><svg viewBox="0 0 19 15" id="ic-sitemap" xmlns="http://www.w3.org/2000/svg"><path fill="#212121" d="M4.382 9.9h-2.7a.9.9 0 0 0-.9.9v2.7a.9.9 0 0 0 .9.9h2.7a.9.9 0 0 0 .9-.9v-2.7a.9.9 0 0 0-.9-.9zm-.675-2.25h5.4V9h1.35V7.65h5.4V9h1.35V7.38c0-.595-.484-1.08-1.08-1.08h-5.67V4.5h1.125a.9.9 0 0 0 .9-.9V.9a.9.9 0 0 0-.9-.9h-3.6a.9.9 0 0 0-.9.9v2.7a.9.9 0 0 0 .9.9h1.125v1.8h-5.67c-.595 0-1.08.485-1.08 1.08V9h1.35V7.65zm7.425 2.25h-2.7a.9.9 0 0 0-.9.9v2.7a.9.9 0 0 0 .9.9h2.7a.9.9 0 0 0 .9-.9v-2.7a.9.9 0 0 0-.9-.9zm6.75 0h-2.7a.9.9 0 0 0-.9.9v2.7a.9.9 0 0 0 .9.9h2.7a.9.9 0 0 0 .9-.9v-2.7a.9.9 0 0 0-.9-.9z"/></svg><svg viewBox="0 0 16 16" id="ic-star-full" xmlns="http://www.w3.org/2000/svg"><g fill="none" fill-rule="evenodd"><path fill="#F4B61E" fill-rule="nonzero" d="M8 11.513L12.12 14l-1.093-4.687 3.64-3.153-4.794-.407L8 1.333l-1.873 4.42-4.794.407 3.64 3.153L3.88 14z"/><path d="M0 0h16v16H0z"/></g></svg><svg viewBox="0 0 19 16" id="ic-tag-editor" xmlns="http://www.w3.org/2000/svg"><g fill="none" fill-rule="evenodd"><path d="M2 1h14v14H2z"/><path fill="#A65CE7" fill-rule="nonzero" d="M9 12.917l1.536-3.38L13.916 8l-3.38-1.536L9 3.084l-1.536 3.38L4.084 8l3.38 1.536z"/><path d="M0 0h19v16H0z" opacity=".5"/></g></svg><svg viewBox="0 0 25 16" id="ic-tag-iap" xmlns="http://www.w3.org/2000/svg"><g fill="none" fill-rule="evenodd"><path fill="#737373" d="M5 5h3.742v1.009H7.48v4.457h1.262v1.004H5v-1.004h1.23V6.009H5V5zm8.367 5.12h-1.942l-.382 1.35H9.728L11.848 5h1.133l2.08 6.47h-1.316l-.378-1.35zm-1.635-1.063h1.342l-.662-2.382-.68 2.382zm5.244.04v2.373h-1.25V5h2.214c.352 0 .67.051.955.153.285.103.527.245.727.427.2.182.354.4.462.655.108.255.162.538.162.85 0 .29-.054.557-.162.803a1.843 1.843 0 0 1-.462.638c-.2.18-.442.32-.727.42-.284.1-.603.151-.955.151h-.964zm0-1.013h.964c.178 0 .332-.027.462-.08a.892.892 0 0 0 .522-.535 1.11 1.11 0 0 0 .065-.376c0-.151-.022-.292-.065-.422a.92.92 0 0 0-.522-.573 1.16 1.16 0 0 0-.462-.085h-.964v2.07z"/><path d="M0 0h25v16H0z" opacity=".5"/></g></svg><svg viewBox="0 0 8 10" id="ic-tag-trending" xmlns="http://www.w3.org/2000/svg"><g fill="none" fill-rule="evenodd"><path fill="#FF512F" fill-rule="nonzero" d="M2.08 10C.75 6.337 3.56 5 3.56 5c-.196 1.954 1.132 3.477 1.132 3.477.489-.123 1.422-.7 1.422-.7 0 .7-.493 2.222-.493 2.222s1.723-1.114 2.266-2.963c.541-1.85-1.032-3.707-1.032-3.707.095 1.31-.435 2.597-1.473 3.58a.71.71 0 0 0 .129-.166c.186-.311.486-1.122.31-2.998C5.575 1.11 2.72 0 2.72 0 2.966 1.605 2.228 1.975.5 5.021-1.23 8.067 2.08 10 2.08 10z"/><path d="M-5-5h18.522v20H-5z" opacity=".5"/></g></svg><svg viewBox="0 0 13 12" id="ic-thumbs-up" xmlns="http://www.w3.org/2000/svg"><path fill="#737373" d="M0 11.818h2.364v-7.09H0v7.09zm13-6.5c0-.65-.532-1.182-1.182-1.182H8.095l.591-2.718v-.177c0-.236-.118-.473-.236-.65L7.8 0 3.9 3.9c-.236.177-.355.473-.355.827v5.91c0 .65.532 1.181 1.182 1.181h5.318c.473 0 .887-.295 1.064-.709l1.773-4.195c.059-.119.059-.296.059-.414V5.318H13c0 .06 0 0 0 0z"/></svg><svg viewBox="0 0 18 15" id="ic-trophy" xmlns="http://www.w3.org/2000/svg"><g fill="none" fill-rule="evenodd"><path d="M-3.218-5h24v24h-24z"/><path fill="#212121" fill-rule="nonzero" d="M5.255 7.373c-.482-1.055-.723-2.262-.723-3.623h-2.5v.938c0 .507.308 1.035.923 1.582.615.546 1.382.914 2.3 1.103zm10.527-2.686V3.75h-2.5c0 1.36-.24 2.568-.722 3.623.918-.189 1.684-.557 2.3-1.103.615-.547.922-1.075.922-1.582zm1.25-1.25v1.25c0 .463-.135.928-.405 1.397s-.635.892-1.094 1.27c-.459.377-1.022.695-1.69.952a6.627 6.627 0 0 1-2.104.434 5.16 5.16 0 0 1-.928.928 1.826 1.826 0 0 0-.512.708c-.095.25-.142.542-.142.874 0 .352.1.648.298.889.199.24.516.361.952.361.488 0 .923.148 1.304.444.38.297.571.67.571 1.118v.626c0 .09-.03.166-.088.224a.304.304 0 0 1-.224.088H4.845a.304.304 0 0 1-.225-.088.304.304 0 0 1-.088-.225v-.624c0-.45.19-.822.571-1.119a2.069 2.069 0 0 1 1.304-.444c.436 0 .754-.12.952-.361.199-.241.298-.537.298-.889 0-.332-.047-.623-.141-.874a1.826 1.826 0 0 0-.513-.708 5.214 5.214 0 0 1-.928-.928 6.627 6.627 0 0 1-2.104-.434c-.668-.257-1.23-.575-1.69-.952a4.657 4.657 0 0 1-1.094-1.27C.917 5.615.782 5.15.782 4.688v-1.25c0-.26.091-.482.274-.665A.904.904 0 0 1 1.72 2.5h2.812v-.938c0-.43.153-.797.46-1.103A1.505 1.505 0 0 1 6.094 0h5.625c.43 0 .797.153 1.103.459.306.306.46.674.46 1.103V2.5h2.812c.26 0 .481.091.664.273a.904.904 0 0 1 .273.664z"/></g></svg><svg viewBox="0 0 32 32" id="linkedin" xmlns="http://www.w3.org/2000/svg"><g fill="none"><circle cx="16" cy="16" r="16" fill="#FFF"/><path fill="#212121" d="M25.378 17.447v6.55h-3.797v-6.11c0-1.535-.549-2.583-1.923-2.583-1.05 0-1.673.706-1.948 1.389-.1.244-.126.583-.126.925v6.379h-3.797s.05-10.35 0-11.421h3.797v1.618c-.007.013-.018.026-.025.038h.025v-.038c.505-.776 1.405-1.886 3.423-1.886 2.498 0 4.371 1.632 4.371 5.14zM9.814 7.071c-1.299 0-2.149.853-2.149 1.973 0 1.096.825 1.974 2.1 1.974h.024c1.324 0 2.148-.878 2.148-1.974-.025-1.12-.824-1.973-2.123-1.973zM7.891 23.997h3.796V12.576H7.891v11.42z"/></g></svg><svg viewBox="0 0 159 32" id="logo" xmlns="http://www.w3.org/2000/svg"><defs><filter id="bfa" width="101.6%" height="132%" x="-.8%" y="-16%" filterUnits="objectBoundingBox"><feOffset dy="2" in="SourceAlpha" result="shadowOffsetOuter1"/><feGaussianBlur in="shadowOffsetOuter1" result="shadowBlurOuter1" stdDeviation="1"/><feColorMatrix in="shadowBlurOuter1" result="shadowMatrixOuter1" values="0 0 0 0 0 0 0 0 0 0 0 0 0 0 0 0 0 0 0.16 0"/><feMerge><feMergeNode in="shadowMatrixOuter1"/><feMergeNode in="SourceGraphic"/></feMerge></filter></defs><g fill="#FFF" fill-rule="evenodd" filter="url(#bfa)" transform="translate(-14 -11)"><g fill-rule="nonzero"><path d="M24.974 12.55c-2.611 0-3.62.195-4.662.752a4.81 4.81 0 0 0-2.01 2.01c-.557 1.041-.752 2.05-.752 4.662v10.052c0 2.611.195 3.62.752 4.662a4.81 4.81 0 0 0 2.01 2.01c1.041.557 2.05.752 4.662.752h10.052c2.611 0 3.62-.195 4.662-.752a4.81 4.81 0 0 0 2.01-2.01c.557-1.041.752-2.05.752-4.662V19.974c0-2.611-.195-3.62-.752-4.662a4.81 4.81 0 0 0-2.01-2.01c-1.041-.557-2.05-.752-4.662-.752H24.974zm0-1.55h10.052c3.12 0 4.252.325 5.393.935a6.36 6.36 0 0 1 2.646 2.646c.61 1.14.935 2.272.935 5.393v10.052c0 3.12-.325 4.252-.935 5.393a6.36 6.36 0 0 1-2.646 2.646c-1.14.61-2.272.935-5.393.935H24.974c-3.12 0-4.252-.325-5.393-.935a6.36 6.36 0 0 1-2.646-2.646c-.61-1.14-.935-2.272-.935-5.393V19.974c0-3.12.325-4.252.935-5.393a6.36 6.36 0 0 1 2.646-2.646c1.14-.61 2.272-.935 5.393-.935z"/><path d="M30.262 33.745c-5.946 0-10.1-4.447-10.182-4.53a.83.83 0 0 1 .18-.96.808.808 0 0 1 .96-.11c.327.33 8.39 8.894 18.002-.082a.809.809 0 0 1 .948.246.83.83 0 0 1 .03.989c-3.584 3.376-7.005 4.447-9.938 4.447zm5.536-12.947a1.7 1.7 0 1 0-2.404-2.404 1.7 1.7 0 0 0 2.404 2.404zm.483 1.579a3.251 3.251 0 0 1-3.983-5.079 3.25 3.25 0 0 1 5.079 3.983l1.656 1.656a.775.775 0 1 1-1.096 1.096l-1.656-1.656zm-12.287-1.648a1.7 1.7 0 1 1 2.404-2.404 1.7 1.7 0 0 1-2.404 2.404zm-.482 1.578a3.251 3.251 0 0 0 3.982-5.078 3.25 3.25 0 0 0-5.078 3.982l-1.657 1.657a.775.775 0 1 0 1.096 1.096l1.657-1.657z"/></g><path d="M60.139 31v-1.332c-.383.478-.875.84-1.477 1.086-.6.246-1.291.369-2.07.369-.765 0-1.438-.147-2.02-.44a3.233 3.233 0 0 1-1.342-1.22 3.3 3.3 0 0 1-.471-1.743c0-1.025.362-1.828 1.086-2.409.724-.58 1.75-.878 3.075-.891h3.198v-.288c0-.642-.212-1.14-.636-1.496-.423-.355-1.038-.533-1.844-.533-1.04 0-2.126.342-3.26 1.025l-.964-1.845c.862-.478 1.644-.823 2.348-1.035.704-.212 1.527-.318 2.47-.318 1.421 0 2.525.342 3.31 1.025.787.683 1.186 1.64 1.2 2.87l.02 7.175H60.14zm-.944-2.47c.547-.362.855-.81.923-1.343v-.984H57.35c-.71 0-1.233.106-1.568.318-.335.212-.502.557-.502 1.035 0 .465.174.834.523 1.107.348.273.823.41 1.425.41.765 0 1.42-.181 1.968-.543zm15.734-7.872a4.775 4.775 0 0 1 1.825 1.978c.43.847.645 1.824.645 2.932 0 1.093-.211 2.056-.635 2.89a4.689 4.689 0 0 1-1.804 1.948c-.779.464-1.681.697-2.706.697-.82 0-1.544-.161-2.173-.482a4.09 4.09 0 0 1-1.558-1.404v5.76h-2.665V20.033h2.665v1.804a3.958 3.958 0 0 1 1.527-1.405c.622-.32 1.343-.481 2.163-.481 1.025 0 1.93.235 2.716.707zm-1.097 7.216c.575-.622.861-1.418.861-2.388s-.286-1.763-.86-2.378c-.575-.616-1.312-.923-2.214-.923-.916 0-1.661.307-2.235.923-.574.615-.861 1.407-.861 2.378 0 .984.287 1.783.861 2.398.574.615 1.319.922 2.235.922.902 0 1.64-.31 2.214-.932zm15.058-7.216a4.775 4.775 0 0 1 1.824 1.978c.43.847.646 1.824.646 2.932 0 1.093-.212 2.056-.636 2.89a4.689 4.689 0 0 1-1.804 1.948c-.779.464-1.68.697-2.706.697-.82 0-1.544-.161-2.173-.482a4.09 4.09 0 0 1-1.558-1.404v5.76h-2.665V20.033h2.665v1.804a3.958 3.958 0 0 1 1.528-1.405c.622-.32 1.342-.481 2.162-.481 1.026 0 1.93.235 2.717.707zm-1.097 7.216c.574-.622.861-1.418.861-2.388s-.287-1.763-.861-2.378c-.574-.616-1.312-.923-2.214-.923-.916 0-1.66.307-2.235.923-.574.615-.86 1.407-.86 2.378 0 .984.286 1.783.86 2.398.575.615 1.32.922 2.235.922.902 0 1.64-.31 2.214-.932zm15.908-7.841v9.921c0 1.04-.236 1.945-.707 2.717-.472.772-1.141 1.366-2.01 1.783-.867.417-1.875.625-3.023.625-1.667 0-3.212-.485-4.633-1.455l1.066-1.927c1.039.765 2.18 1.148 3.423 1.148.985 0 1.767-.253 2.348-.758.58-.506.871-1.196.871-2.071v-1.291c-.369.56-.847.987-1.435 1.28-.588.295-1.271.442-2.05.442-.957 0-1.804-.223-2.542-.667a4.547 4.547 0 0 1-1.722-1.865c-.41-.8-.615-1.719-.615-2.757 0-1.026.205-1.93.615-2.717a4.508 4.508 0 0 1 1.722-1.835c.738-.437 1.585-.656 2.542-.656.765 0 1.445.15 2.04.451a3.774 3.774 0 0 1 1.445 1.271v-1.64h2.665zm-3.475 7.451c.54-.58.81-1.336.81-2.265 0-.93-.27-1.684-.81-2.265-.54-.581-1.24-.872-2.101-.872s-1.561.294-2.101.882c-.54.588-.817 1.34-.83 2.255.013.93.29 1.684.83 2.265.54.581 1.24.871 2.101.871s1.561-.29 2.101-.87zm10.783-6.97c.636-.376 1.377-.57 2.224-.584v2.583c-1.134-.068-2.04.195-2.716.79-.676.594-1.015 1.397-1.015 2.408V31h-2.665V20.033h2.665v2.111c.37-.71.872-1.254 1.507-1.63zm11.89.133a5.044 5.044 0 0 1 2.03 1.958c.485.84.727 1.808.727 2.901 0 1.107-.242 2.084-.727 2.931a5.025 5.025 0 0 1-2.03 1.968c-.868.465-1.869.697-3.003.697-1.148 0-2.16-.232-3.034-.697a5.008 5.008 0 0 1-2.04-1.968c-.485-.847-.728-1.824-.728-2.931 0-1.093.243-2.06.728-2.9a5.028 5.028 0 0 1 2.04-1.959c.875-.464 1.886-.696 3.034-.696 1.134 0 2.135.232 3.003.696zm-5.258 2.501c-.574.616-.861 1.415-.861 2.399s.287 1.783.861 2.398c.574.616 1.326.923 2.255.923.902 0 1.64-.307 2.214-.923.574-.615.861-1.414.861-2.398 0-.984-.287-1.783-.861-2.399-.574-.615-1.312-.922-2.214-.922-.93 0-1.681.307-2.255.922zm18.132-2.5a5.044 5.044 0 0 1 2.03 1.957c.485.84.728 1.808.728 2.901 0 1.107-.243 2.084-.728 2.931a5.025 5.025 0 0 1-2.03 1.968c-.868.465-1.869.697-3.003.697-1.148 0-2.16-.232-3.034-.697a5.008 5.008 0 0 1-2.04-1.968c-.485-.847-.727-1.824-.727-2.931 0-1.093.242-2.06.727-2.9a5.028 5.028 0 0 1 2.04-1.959c.875-.464 1.886-.696 3.034-.696 1.134 0 2.135.232 3.003.696zm-5.258 2.5c-.574.616-.861 1.415-.861 2.399s.287 1.783.861 2.398c.574.616 1.326.923 2.255.923.902 0 1.64-.307 2.214-.923.574-.615.861-1.414.861-2.398 0-.984-.287-1.783-.861-2.399-.574-.615-1.312-.922-2.214-.922-.93 0-1.681.307-2.255.922zm8.261-3.095l2.788-.02 2.87 8.343 2.809-8.344h2.686L145.746 31H143l-4.222-10.947zm20.818 1.394c.882.998 1.323 2.398 1.323 4.202 0 .356-.007.622-.021.8h-8.097c.177.779.543 1.39 1.096 1.835.554.444 1.234.666 2.04.666.56 0 1.097-.106 1.61-.318.512-.212.96-.516 1.342-.912l1.435 1.496a5.55 5.55 0 0 1-1.999 1.394c-.786.329-1.657.492-2.614.492-1.12 0-2.108-.232-2.962-.697a4.873 4.873 0 0 1-1.978-1.957c-.465-.84-.697-1.808-.697-2.901 0-1.093.236-2.064.707-2.911a5.008 5.008 0 0 1 1.978-1.978c.848-.472 1.811-.708 2.891-.708 1.75 0 3.065.5 3.946 1.497zm-1.117 3.218c-.027-.806-.294-1.448-.8-1.927-.505-.478-1.175-.717-2.008-.717-.78 0-1.432.236-1.958.707-.526.472-.851 1.117-.974 1.937h5.74zm9.584-2.398c-.567-.178-1.09-.267-1.569-.267-.45 0-.81.08-1.076.236-.266.157-.4.4-.4.728 0 .342.168.605.503.79.335.184.864.378 1.588.583a15.29 15.29 0 0 1 1.887.687c.492.226.919.56 1.28 1.005.363.444.544 1.028.544 1.752 0 1.067-.41 1.886-1.23 2.46-.82.575-1.852.861-3.095.861a7.855 7.855 0 0 1-2.481-.4c-.806-.266-1.49-.645-2.05-1.137l.923-1.866c.492.424 1.08.756 1.763.995.683.239 1.332.358 1.947.358.492 0 .885-.085 1.179-.256a.834.834 0 0 0 .44-.769c0-.382-.17-.67-.512-.86-.342-.192-.895-.404-1.66-.636-.739-.219-1.34-.434-1.804-.646a3.264 3.264 0 0 1-1.21-.963c-.342-.43-.512-.994-.512-1.692 0-1.08.392-1.903 1.178-2.47.786-.567 1.773-.85 2.963-.85.724 0 1.438.102 2.142.307a6.636 6.636 0 0 1 1.875.861l-.963 1.927a7.879 7.879 0 0 0-1.65-.738z"/></g></svg><svg viewBox="0 0 13 12" id="shape" xmlns="http://www.w3.org/2000/svg"><path fill="#737373" d="M5.154 0h1.914c.318 0 .574.256.574.574v4.02H9.74c.426 0 .639.514.337.816L6.438 9.05a.464.464 0 0 1-.653 0L2.141 5.41a.478.478 0 0 1 .338-.816h2.1V.574c0-.318.256-.574.575-.574zm7.096 8.574v2.68a.573.573 0 0 1-.574.574H.574A.573.573 0 0 1 0 11.254v-2.68C0 8.256.256 8 .574 8h3.51l1.172 1.172a1.227 1.227 0 0 0 1.738 0L8.166 8h3.51c.318 0 .574.256.574.574zM9.957 11.48a.48.48 0 0 0-.478-.48.48.48 0 0 0-.479.479.48.48 0 0 0 .479.478.48.48 0 0 0 .478-.478zm1 0a.48.48 0 0 0-.478-.479.48.48 0 0 0-.479.479.48.48 0 0 0 .479.478.48.48 0 0 0 .478-.478z"/></svg><svg viewBox="0 0 10 11" id="shape-user" xmlns="http://www.w3.org/2000/svg"><path fill="#37B779" d="M5 5.5c1.578 0 2.857-1.231 2.857-2.75S6.578 0 5 0C3.422 0 2.143 1.231 2.143 2.75S3.422 5.5 5 5.5zm2 .688h-.373a4.018 4.018 0 0 1-3.254 0H3c-1.656 0-3 1.293-3 2.887v.894C0 10.539.48 11 1.071 11H8.93c.59 0 1.07-.462 1.07-1.031v-.894c0-1.594-1.344-2.887-3-2.887z"/></svg><svg viewBox="0 0 13 12" id="shape_2" xmlns="http://www.w3.org/2000/svg"><path fill="#737373" d="M0 0h2.364v7.09H0V0zm13 6.5c0 .65-.532 1.182-1.182 1.182H8.095l.591 2.718v.177c0 .237-.118.473-.236.65l-.65.591-3.9-3.9c-.236-.177-.355-.473-.355-.827V1.18C3.545.532 4.077 0 4.727 0h5.318c.473 0 .887.295 1.064.71l1.773 4.195c.059.118.059.295.059.413V6.5H13c0-.06 0 0 0 0z"/></svg><svg viewBox="0 0 12 13" id="shape_3" xmlns="http://www.w3.org/2000/svg"><path fill="#737373" d="M10.8 0H1.2C.537 0 .006.582.006 1.3L0 13l2.4-2.6h8.4c.663 0 1.2-.582 1.2-1.3V1.3c0-.718-.537-1.3-1.2-1.3zM2.4 7.8V6.191L6.528 1.72a.283.283 0 0 1 .423 0l1.062 1.15a.343.343 0 0 1 0 .459L3.885 7.8H2.4zm7.2 0H5.1l1.2-1.3h3.3v1.3z"/></svg><svg viewBox="0 0 14 13" id="shape_4" xmlns="http://www.w3.org/2000/svg"><path fill="#3981E5" d="M6.73 10.278l4.16 2.51-1.103-4.731 3.675-3.184-4.84-.41L6.731 0 4.839 4.463 0 4.873l3.675 3.184-1.104 4.731z"/></svg><svg viewBox="0 0 13 12" id="shape_5" xmlns="http://www.w3.org/2000/svg"><path fill="#737373" d="M5.154 0h1.914c.318 0 .574.256.574.574v4.02H9.74c.426 0 .639.514.337.816L6.438 9.05a.464.464 0 0 1-.653 0L2.141 5.41a.478.478 0 0 1 .338-.816h2.1V.574c0-.318.256-.574.575-.574zm7.096 8.574v2.68a.573.573 0 0 1-.574.574H.574A.573.573 0 0 1 0 11.254v-2.68C0 8.256.256 8 .574 8h3.51l1.172 1.172a1.227 1.227 0 0 0 1.738 0L8.166 8h3.51c.318 0 .574.256.574.574zM8.957 10.48a.48.48 0 0 0-.478-.48.48.48 0 0 0-.479.479.48.48 0 0 0 .479.478.48.48 0 0 0 .478-.478zm2 0a.48.48 0 0 0-.478-.479.48.48 0 0 0-.479.479.48.48 0 0 0 .479.478.48.48 0 0 0 .478-.478z"/></svg><svg viewBox="0 0 32 32" id="twitter" xmlns="http://www.w3.org/2000/svg"><defs><path id="bmb" d="M25.235 10.67a7.06 7.06 0 0 1-2.03.556 3.55 3.55 0 0 0 1.554-1.955 7.128 7.128 0 0 1-2.246.859 3.536 3.536 0 0 0-6.025 3.223A10.038 10.038 0 0 1 9.2 9.66a3.509 3.509 0 0 0-.478 1.777c0 1.227.624 2.31 1.572 2.943a3.536 3.536 0 0 1-1.601-.444v.044a3.54 3.54 0 0 0 2.835 3.467c-.296.08-.608.124-.931.124-.229 0-.45-.023-.666-.066a3.538 3.538 0 0 0 3.302 2.456 7.094 7.094 0 0 1-4.39 1.51c-.286 0-.567-.017-.844-.048a9.994 9.994 0 0 0 5.42 1.591c6.504 0 10.059-5.387 10.059-10.06l-.012-.457a7.06 7.06 0 0 0 1.768-1.827z"/><filter id="bma" width="117.4%" height="121.4%" x="-8.7%" y="-10.7%" filterUnits="objectBoundingBox"><feOffset in="SourceAlpha" result="shadowOffsetOuter1"/><feGaussianBlur in="shadowOffsetOuter1" result="shadowBlurOuter1" stdDeviation=".5"/><feColorMatrix in="shadowBlurOuter1" values="0 0 0 0 0 0 0 0 0 0 0 0 0 0 0 0 0 0 0.08 0"/></filter></defs><g fill="none" fill-rule="evenodd"><circle cx="16" cy="16" r="16" fill="#FFF"/><g fill-rule="nonzero"><use fill="#000" filter="url(#bma)" xlink:href="#bmb"/><use fill="#212121" xlink:href="#bmb"/></g></g></svg></svg>