<svg xmlns="http://www.w3.org/2000/svg" width="189" height="72" viewBox="0 0 189 72">
    <g fill="none" fill-rule="evenodd">
        <path fill="#015A75" d="M188 61.973V10.027c0-4.71-3.84-8.527-8.576-8.527H65v69h114.424a8.601 8.601 0 0 0 6.064-2.498 8.502 8.502 0 0 0 2.512-6.03"/>
        <path fill="#FFF" d="M10 2h54v68H10a9 9 0 0 1-9-9V11a9 9 0 0 1 9-9z"/>
        <path fill="#015A75" fill-rule="nonzero" d="M179.656 71.5H64V.5h115.656c5.158.006 9.338 4.176 9.344 9.323v52.354c-.006 5.147-4.186 9.317-9.344 9.323zM65.46 70.044h114.196c4.352-.005 7.88-3.524 7.884-7.867V9.823c-.004-4.343-3.532-7.862-7.884-7.867H65.46v68.088z"/>
        <path fill="#015A75" d="M27.938 24.5l-3.042 4.12c-1.525 2.064-1.052 5.718 1.03 7.193l5.642 3.997c.968.687 1.044 1.374.585 2.091l.82.599 2.857-3.885c1.766-2.4 1.612-5.667-1.007-7.538l-5.693-4.072c-.68-.489-.752-1.167-.375-1.923l-.82-.574M33.017 6.5l-4.75 6.34c-2.227 2.973-1.416 8.042 1.628 10.208l7.807 5.532c1.582 1.122 1.79 3.978.637 5.44l.662.48 5.386-7.311c2.418-3.285 2.278-8.138-1.52-10.8l-8.352-5.857c-1.17-.812-1.753-2.212-.78-3.542l-.718-.49M21 47.042h6.263L28.38 50.5h10.237l1.117-3.458H46l-.821-2.542H21.821L21 47.042M24.423 59.15c1.133-.656 1.83-1.618 1.83-2.938 0-2.636-2.19-3.712-4.58-3.712H15v14h6.616c2.824 0 5.816-1.218 5.332-4.424-.287-1.837-1.024-2.27-2.522-2.93l-.003.004zm-6.411-3.97h3.474c2.166 0 2.244 2.985.135 2.985h-3.61v-2.986zm3.874 8.675h-3.874v-3.193h3.874c2.845 0 2.67 3.193 0 3.193z"/>
        <path fill="#015A75" d="M36.423 59.15c1.133-.656 1.83-1.618 1.83-2.938 0-2.636-2.19-3.712-4.58-3.712H27v14h6.616c2.821 0 5.816-1.218 5.332-4.424-.287-1.837-1.024-2.27-2.522-2.93l-.003.004zm-6.4-3.977h3.466c2.166 0 2.244 2.986.135 2.986H30.02l.003-2.986zm3.866 8.68H30.02v-3.19h3.866c2.842 0 2.67 3.192 0 3.192l.003-.003zM51.945 62.078c-.287-1.836-1.024-2.27-2.522-2.928 1.133-.656 1.83-1.618 1.83-2.938 0-2.636-2.19-3.712-4.58-3.712H40v14h6.616c2.821 0 5.816-1.218 5.332-4.424l-.003.002zm-8.913-6.902h3.454c2.166 0 2.244 2.986.135 2.986h-3.6l.01-2.986zm3.865 8.679H43.02v-3.193h3.866c2.842 0 2.67 3.193 0 3.193h.011z"/>
        <path fill="#FFF" fill-rule="nonzero" d="M83.428 33.5l-.65-1.693h-4.54l-.666 1.693H75l4.096-10h2.826L86 33.5h-2.572zm-2.918-7.874l-1.65 4.303h3.301l-1.65-4.303z"/>
        <path fill="#FFF" d="M86 28.509c0-2.97 2.443-5.007 5.598-5.007 1.839-.047 3.546.873 4.4 2.371l-1.925.87c-.479-.848-1.422-1.389-2.46-1.412-1.908 0-3.296 1.346-3.296 3.162 0 1.816 1.388 3.162 3.295 3.162 1.045-.01 1.997-.55 2.475-1.404l1.913.877c-.757 1.202-2.082 2.372-4.4 2.372-3.142 0-5.6-2.019-5.6-4.991zM96 28.52c0-2.976 2.444-5.018 5.6-5.018 1.84-.047 3.547.876 4.4 2.377l-1.925.872c-.481-.854-1.43-1.397-2.475-1.416-1.908 0-3.297 1.35-3.297 3.17 0 1.82 1.389 3.17 3.297 3.17 1.044-.011 1.997-.553 2.475-1.408l1.925.855c-.757 1.205-2.083 2.378-4.4 2.378-3.153.024-5.6-2-5.6-4.98z"/>
        <path fill="#FFF" fill-rule="nonzero" d="M113.578 33.492l-1.937-3.541h-1.54v3.54H108V23.5h4.618c2.055 0 3.315 1.362 3.315 3.22 0 1.768-1.095 2.724-2.153 2.966L116 33.5l-2.422-.008zm.2-6.772c0-.84-.636-1.349-1.48-1.349h-2.204v2.697h2.203c.853 0 1.48-.51 1.48-1.348z"/>
        <path fill="#FFF" d="M117 33.5v-10h7v1.873h-4.897v2.113h4.781v1.873h-4.781v2.263h4.886v1.873z"/>
        <path fill="#FFF" fill-rule="nonzero" d="M126 33.5v-10h3.836c3.047 0 5.164 1.993 5.164 5.008 0 3.015-2.122 4.992-5.164 4.992H126zm6.897-4.992c0-1.77-1.061-3.132-3.048-3.132h-1.764v6.248h1.764c1.912 0 3.037-1.423 3.037-3.119l.01.003z"/>
        <path fill="#FFF" d="M137 33.5v-10h2v10zM143.934 33.5v-8.127H141V23.5h8v1.873h-2.917V33.5zM151 33.5v-10h7v1.873h-4.897v2.113h4.776v1.873h-4.776v2.263h4.886v1.873z"/>
        <path fill="#FFF" fill-rule="nonzero" d="M160 33.5v-10h3.836c3.047 0 5.164 1.993 5.164 5.008 0 3.015-2.122 4.992-5.164 4.992H160zm6.897-4.992c0-1.77-1.061-3.132-3.048-3.132h-1.764v6.248h1.764c1.915 0 3.037-1.423 3.037-3.119l.01.003zM76 50.5v-10h5.056c1.833 0 2.766 1.213 2.766 2.55 0 1.259-.75 2.098-1.656 2.292 1.022.163 1.834 1.2 1.834 2.454 0 1.499-.964 2.699-2.795 2.699L76 50.5zm5.734-7.088c0-.304-.12-.594-.333-.8a1.023 1.023 0 0 0-.79-.29h-2.565v2.18h2.564c.69 0 1.121-.45 1.121-1.08l.003-.01zm.186 4.09c0-.63-.432-1.17-1.239-1.17h-2.635v2.322h2.635c.77 0 1.24-.439 1.24-1.153z"/>
        <path fill="#FFF" d="M86 46.405V40.5h2.168v5.833c0 1.368.813 2.311 2.339 2.311s2.325-.943 2.325-2.311V40.5H95v5.892c0 2.445-1.46 4.108-4.485 4.108C87.49 50.5 86 48.82 86 46.405zM97 48.954l1.12-1.567a4.27 4.27 0 0 0 3.09 1.306c1.137 0 1.691-.527 1.691-1.074 0-.71-.903-.912-1.966-1.173-1.59-.362-3.628-.792-3.628-3.002 0-1.61 1.4-2.944 3.686-2.944 1.545 0 2.828.464 3.79 1.348l-1.153 1.511a4.185 4.185 0 0 0-2.827-1.055c-.888 0-1.384.393-1.384.971 0 .625.888.826 1.937 1.074 1.59.377 3.644.857 3.644 3.046 0 1.77-1.267 3.105-3.89 3.105-1.866-.018-3.206-.633-4.11-1.546zM107 50.5v-10h2v10zM117.94 50.5l-4.798-6.521V50.5H111v-10h2.194l4.664 6.27V40.5H120v10zM122 50.5v-10h7v1.873h-4.897v2.113h4.781v1.873h-4.781v2.263h4.884v1.873zM130 48.954l1.12-1.567a4.264 4.264 0 0 0 3.086 1.306c1.136 0 1.69-.527 1.69-1.074 0-.71-.903-.912-1.965-1.173-1.588-.362-3.624-.792-3.624-3.002 0-1.61 1.398-2.944 3.682-2.944 1.544 0 2.825.464 3.786 1.348l-1.144 1.511a4.18 4.18 0 0 0-2.824-1.055c-.887 0-1.382.393-1.382.971 0 .625.89.826 1.935 1.074 1.588.377 3.64.857 3.64 3.046 0 1.77-1.265 3.105-3.886 3.105-1.864-.018-3.203-.633-4.114-1.546zM140 48.954l1.12-1.567a4.27 4.27 0 0 0 3.09 1.306c1.137 0 1.691-.527 1.691-1.074 0-.71-.903-.912-1.966-1.173-1.59-.362-3.628-.792-3.628-3.002 0-1.61 1.4-2.944 3.686-2.944 1.545 0 2.828.464 3.79 1.348l-1.153 1.511a4.187 4.187 0 0 0-2.827-1.055c-.888 0-1.384.393-1.384.971 0 .625.89.826 1.937 1.074 1.59.377 3.644.857 3.644 3.046 0 1.77-1.267 3.105-3.89 3.105-1.868-.018-3.209-.633-4.11-1.546z"/>
        <path fill="#015A75" fill-rule="nonzero" d="M66 71.5H9.387C4.205 71.494.007 67.324 0 62.177V9.823C.006 4.676 4.205.506 9.387.5H66v71zM9.387 1.956c-4.373.005-7.916 3.524-7.92 7.867v52.354c.004 4.343 3.547 7.862 7.92 7.867h55.147V1.956H9.387z"/>
    </g>
</svg>
