<svg xmlns="http://www.w3.org/2000/svg" width="13" height="16" viewBox="0 0 13 16">
    <defs>
        <filter id="a" width="109.1%" height="126.7%" x="-4.5%" y="-13.3%" filterUnits="objectBoundingBox">
            <feOffset dy="1" in="SourceAlpha" result="shadowOffsetOuter1"/>
            <feGaussianBlur in="shadowOffsetOuter1" result="shadowBlurOuter1" stdDeviation=".5"/>
            <feColorMatrix in="shadowBlurOuter1" result="shadowMatrixOuter1" values="0 0 0 0 0 0 0 0 0 0 0 0 0 0 0 0 0 0 0.16 0"/>
            <feMerge>
                <feMergeNode in="shadowMatrixOuter1"/>
                <feMergeNode in="SourceGraphic"/>
            </feMerge>
        </filter>
    </defs>
    <path fill="#FFF" fill-opacity=".5" fill-rule="nonzero" d="M9.941 10.308a7.094 7.094 0 0 1-.648 1.238c-.34.516-.62.873-.835 1.071-.333.326-.69.492-1.073.502-.274 0-.606-.083-.991-.251-.387-.168-.742-.25-1.067-.25-.34 0-.706.082-1.097.25-.392.168-.707.256-.948.264-.367.017-.733-.155-1.098-.515-.233-.216-.524-.585-.873-1.11A7.864 7.864 0 0 1 .388 9.56 7.528 7.528 0 0 1 0 7.24c0-.858.175-1.598.524-2.218a3.18 3.18 0 0 1 1.098-1.179 2.826 2.826 0 0 1 1.484-.445c.292 0 .674.096 1.148.284.474.189.778.285.911.285.1 0 .437-.112 1.01-.335.541-.207.998-.293 1.372-.26 1.014.088 1.776.512 2.283 1.277-.907.584-1.356 1.401-1.347 2.45.009.816.288 1.496.836 2.036.249.25.526.444.835.581a9.955 9.955 0 0 1-.213.593zM7.615.59c0 .64-.22 1.238-.66 1.791-.529.658-1.17 1.038-1.865.978a2.114 2.114 0 0 1-.014-.242c0-.615.252-1.273.7-1.81.223-.273.507-.499.852-.68.343-.177.669-.276.974-.293.01.086.013.171.013.256z" filter="url(#a)" transform="translate(1)"/>
</svg>
