<svg xmlns="http://www.w3.org/2000/svg" width="13" height="17" viewBox="0 0 13 17">
    <g fill="none" fill-rule="evenodd">
        <path d="M-3-4h18.752v24.062H-3z"/>
        <path fill="#737373" fill-rule="nonzero" d="M11.057.01c.134 0 .262.034.384.101.191.097.344.25.457.459.114.209.17.44.17.694v14.423c0 .254-.056.485-.17.694a1.065 1.065 0 0 1-.457.459.795.795 0 0 1-.384.09c-.28 0-.52-.12-.724-.359l-3.845-4.744-3.846 4.744c-.21.246-.45.37-.724.37a.785.785 0 0 1-.384-.101 1.065 1.065 0 0 1-.457-.46 1.43 1.43 0 0 1-.17-.693V1.264c0-.254.056-.485.17-.694.113-.209.266-.362.457-.459.123-.067.25-.1.384-.1h9.139z"/>
    </g>
</svg>
