<svg xmlns="http://www.w3.org/2000/svg" width="32" height="32" viewBox="0 0 32 32">
    <g fill="none" fill-rule="nonzero">
        <circle cx="15.886" cy="15.887" r="15.886" fill="#FFF"/>
        <path fill="#212121" d="M17.169 21.273c-1.201-.092-1.706-.688-2.648-1.26-.517 2.716-1.15 5.32-3.024 6.68-.58-4.105.85-7.188 1.512-10.461-1.13-1.903.136-5.733 2.52-4.79 2.935 1.16-2.54 7.076 1.136 7.815 3.837.772 5.404-6.658 3.024-9.075-3.439-3.49-10.009-.08-9.2 4.915.196 1.222 1.458 1.592.503 3.277-2.2-.487-2.857-2.223-2.773-4.537.137-3.787 3.404-6.44 6.68-6.806 4.145-.464 8.035 1.521 8.572 5.42.604 4.4-1.871 9.165-6.302 8.822z"/>
    </g>
</svg>
