<svg xmlns="http://www.w3.org/2000/svg" xmlns:xlink="http://www.w3.org/1999/xlink" width="32" height="32" viewBox="0 0 32 32">
    <defs>
        <path id="b" d="M18.206 10.427h2.32V7H17.8v.012c-3.304.117-3.981 1.975-4.04 3.926h-.008v1.71h-2.25v3.357h2.25V25h3.391v-8.995h2.778l.536-3.356h-3.313v-1.034c0-.66.439-1.188 1.063-1.188z"/>
        <filter id="a" width="133.2%" height="116.7%" x="-16.6%" y="-8.3%" filterUnits="objectBoundingBox">
            <feOffset in="SourceAlpha" result="shadowOffsetOuter1"/>
            <feGaussianBlur in="shadowOffsetOuter1" result="shadowBlurOuter1" stdDeviation=".5"/>
            <feColorMatrix in="shadowBlurOuter1" values="0 0 0 0 0 0 0 0 0 0 0 0 0 0 0 0 0 0 0.08 0"/>
        </filter>
    </defs>
    <g fill="none" fill-rule="nonzero">
        <path fill="#FFF" d="M15.963 0c8.816 0 15.962 7.147 15.962 15.963 0 8.816-7.146 15.962-15.962 15.962C7.146 31.925 0 24.78 0 15.963 0 7.147 7.146 0 15.963 0z"/>
        <g>
            <use fill="#000" filter="url(#a)" xlink:href="#b"/>
            <use fill="#212121" xlink:href="#b"/>
        </g>
    </g>
</svg>
