<svg xmlns="http://www.w3.org/2000/svg" width="15" height="13" viewBox="0 0 15 13">
    <g fill="none" fill-rule="evenodd">
        <path d="M-4.218-6h24v24h-24z"/>
        <path fill="#212121" fill-rule="nonzero" d="M.782 12.727h2.546V5.091H.782v7.636zm14-7c0-.7-.573-1.272-1.273-1.272H9.5l.637-2.928v-.19c0-.255-.128-.51-.255-.7L9.182 0l-4.2 4.2c-.254.19-.382.51-.382.89v6.365c0 .7.573 1.272 1.273 1.272H11.6c.51 0 .955-.318 1.146-.763l1.909-4.519c.064-.127.064-.318.064-.445V5.727h.063c0 .064 0 0 0 0z"/>
    </g>
</svg>
