<svg xmlns="http://www.w3.org/2000/svg" width="32" height="32" viewBox="0 0 32 32">
    <g fill="none" fill-rule="evenodd">
        <circle cx="16" cy="16" r="16" fill="#FFF"/>
        <g fill="#212121" fill-rule="nonzero">
            <path d="M20.4 6H11.49A5.495 5.495 0 0 0 6 11.489V20.4a5.495 5.495 0 0 0 5.489 5.489H20.4a5.495 5.495 0 0 0 5.489-5.49V11.49A5.495 5.495 0 0 0 20.4 6zm3.725 14.4a3.728 3.728 0 0 1-3.724 3.725h-8.912A3.728 3.728 0 0 1 7.765 20.4v-8.912a3.728 3.728 0 0 1 3.724-3.724H20.4a3.729 3.729 0 0 1 3.724 3.724V20.4z"/>
            <path d="M15.945 10.82a5.13 5.13 0 0 0-5.125 5.125 5.13 5.13 0 0 0 5.125 5.125 5.13 5.13 0 0 0 5.125-5.125 5.13 5.13 0 0 0-5.125-5.125zm0 8.485a3.364 3.364 0 0 1-3.36-3.36 3.364 3.364 0 0 1 3.36-3.36 3.364 3.364 0 0 1 3.36 3.36 3.364 3.364 0 0 1-3.36 3.36zM21.285 9.324a1.3 1.3 0 0 0-1.294 1.294c0 .34.139.674.38.915.24.24.574.379.914.379.341 0 .674-.139.915-.379.241-.241.379-.575.379-.915a1.3 1.3 0 0 0-.379-.916 1.3 1.3 0 0 0-.915-.378z"/>
        </g>
    </g>
</svg>
