<svg xmlns="http://www.w3.org/2000/svg" width="14" height="16" viewBox="0 0 14 16">
    <g fill="none" fill-rule="evenodd">
        <path d="M-5.218-4h24v24h-24z"/>
        <path fill="#212121" fill-rule="nonzero" d="M3.262 14.554c-.754-.834-1.508-1.702-1.987-2.737a6.059 6.059 0 0 1-.377-3.572A7.616 7.616 0 0 1 2.474 4.94c-.069.835.24 1.703.822 2.337-.343-1.602.206-3.338 1.302-4.606C5.694 1.402 7.202.567 8.778 0c-.788.801-.891 2.07-.583 3.138.309 1.068.96 2.003 1.542 2.97.582.969 1.13 1.97 1.165 3.072.308-.568.65-1.135.856-1.77.206-.634.309-1.301.137-1.936.617.735.96 1.47 1.13 2.404.172.935.138 1.903.035 2.837-.137 1.035-.41 2.103-.993 2.971-.686 1.035-1.782 1.77-2.981 2.17-2.124.367-4.214.067-5.824-1.302z"/>
        <path fill="#FFF" fill-rule="nonzero" d="M5.887 15.786c2.725 1.091 5.417-2.216 3.922-4.774 0-.034-.034-.034-.034-.068.133 1.398-.199 2.421-.83 3 .332-.818.1-1.772-.3-2.59-.398-.785-.963-1.501-1.395-2.251-.432-.784-.765-1.671-.565-2.558-.798.614-1.363 1.535-1.596 2.524-.232.988-.1 2.08.333 3-.499-.375-.864-.989-.898-1.636-.531.647-.864 1.5-.83 2.352 0 1.33 1.03 2.524 2.193 3z"/>
    </g>
</svg>
