<svg xmlns="http://www.w3.org/2000/svg" width="18" height="16" viewBox="0 0 18 16">
    <path fill="#4A4A4A" fill-rule="nonzero" stroke="#4A4A4A" d="M15.48 2.305a4.39 4.39 0 0 0-3.128-1.295A4.4 4.4 0 0 0 9.22 2.308l-.438.438-.444-.444A4.411 4.411 0 0 0 5.203 1c-1.18 0-2.292.461-3.126 1.295A4.383 4.383 0 0 0 .782 5.427c0 1.183.465 2.292 1.302 3.129l6.366 6.366a.457.457 0 0 0 .644.003l6.38-6.356a4.4 4.4 0 0 0 1.298-3.132 4.38 4.38 0 0 0-1.291-3.132zm-.65 5.617l-6.058 6.034-6.044-6.044a3.49 3.49 0 0 1-1.03-2.485c0-.939.362-1.82 1.027-2.481a3.485 3.485 0 0 1 2.478-1.027c.939 0 1.823.366 2.488 1.03l.766.766c.18.18.468.18.647 0l.76-.76a3.496 3.496 0 0 1 2.484-1.03c.936 0 1.817.367 2.482 1.028a3.487 3.487 0 0 1 1.027 2.484 3.473 3.473 0 0 1-1.027 2.485z"/>
</svg>
