<svg xmlns="http://www.w3.org/2000/svg" width="20" height="15" viewBox="0 0 20 15">
    <path fill="#212121" fill-rule="nonzero" d="M16.88 9.26v4.726a.79.79 0 0 1-.792.792H12.26a.397.397 0 0 1-.395-.396v-3.694a.397.397 0 0 0-.396-.396H9.095a.397.397 0 0 0-.396.396v3.694a.397.397 0 0 1-.396.396H4.477a.79.79 0 0 1-.792-.792V9.26c0-.119.053-.23.145-.307l6.202-5.106a.402.402 0 0 1 .504 0l6.202 5.106c.089.076.141.188.141.307zm2.757-2.01L16.88 4.978V.409a.397.397 0 0 0-.395-.396h-1.848a.397.397 0 0 0-.395.396v2.395L11.288.373a1.582 1.582 0 0 0-2.012 0L.927 7.25a.397.397 0 0 0-.052.558l.84 1.022c.14.169.39.192.558.053l7.759-6.39a.402.402 0 0 1 .504 0l7.759 6.39a.397.397 0 0 0 .557-.053l.841-1.022a.397.397 0 0 0-.056-.558z"/>
</svg>
