<svg xmlns="http://www.w3.org/2000/svg" width="32" height="32" viewBox="0 0 32 32">
    <g fill="none" fill-rule="nonzero">
        <circle cx="16" cy="16" r="16" fill="#FFF"/>
        <path fill="#212121" d="M25.378 17.447v6.55h-3.797v-6.11c0-1.535-.549-2.583-1.923-2.583-1.05 0-1.673.706-1.948 1.389-.1.244-.126.583-.126.925v6.379h-3.797s.05-10.35 0-11.421h3.797v1.618c-.007.013-.018.026-.025.038h.025v-.038c.505-.776 1.405-1.886 3.423-1.886 2.498 0 4.371 1.632 4.371 5.14zM9.814 7.071c-1.299 0-2.149.853-2.149 1.973 0 1.096.825 1.974 2.1 1.974h.024c1.324 0 2.148-.878 2.148-1.974-.025-1.12-.824-1.973-2.123-1.973zM7.891 23.997h3.796V12.576H7.891v11.42z"/>
    </g>
</svg>
