<svg xmlns="http://www.w3.org/2000/svg" width="16" height="12" viewBox="0 0 16 12">
    <g fill="none" fill-rule="evenodd">
        <path d="M-4.218-6h24v24h-24z"/>
        <path fill="#212121" fill-rule="nonzero" d="M8.893 5.407h4.731v1.014h-4.73V5.407zm0-1.69h4.731v1.014h-4.73V3.717zm0 3.38h4.731v1.014h-4.73V7.097zM14.3 0H2.134C1.391 0 .782.608.782 1.352v8.787c0 .743.609 1.351 1.352 1.351H14.3c.744 0 1.352-.608 1.352-1.351V1.352C15.652.608 15.044 0 14.3 0zm0 10.139H8.217V1.352H14.3v8.787z"/>
    </g>
</svg>
