<svg xmlns="http://www.w3.org/2000/svg" width="12" height="12" viewBox="0 0 12 12">
    <g fill="#737373" fill-rule="nonzero">
        <path d="M4.358 0H.642A.643.643 0 0 0 0 .642v3.716C0 4.712.288 5 .642 5h3.716A.643.643 0 0 0 5 4.358V.642A.643.643 0 0 0 4.358 0zM7.642 5h3.716A.643.643 0 0 0 12 4.358V.642A.643.643 0 0 0 11.358 0H7.642A.643.643 0 0 0 7 .642v3.716c0 .354.288.642.642.642zM4.358 7H.642A.643.643 0 0 0 0 7.642v3.716c0 .354.288.642.642.642h3.716A.643.643 0 0 0 5 11.358V7.642A.643.643 0 0 0 4.358 7zM11.643 9.143H9.857V7.357a.357.357 0 0 0-.714 0v1.786H7.357a.357.357 0 0 0 0 .714h1.786v1.786a.357.357 0 0 0 .714 0V9.857h1.786a.357.357 0 0 0 0-.714z"/>
    </g>
</svg>
