<svg xmlns="http://www.w3.org/2000/svg" width="13" height="12" viewBox="0 0 13 12">
    <path fill="#737373" fill-rule="nonzero" d="M5.154 0h1.914c.318 0 .574.256.574.574v4.02H9.74c.426 0 .639.514.337.816L6.438 9.05a.464.464 0 0 1-.653 0L2.141 5.41a.478.478 0 0 1 .338-.816h2.1V.574c0-.318.256-.574.575-.574zm7.096 8.574v2.68a.573.573 0 0 1-.574.574H.574A.573.573 0 0 1 0 11.254v-2.68C0 8.256.256 8 .574 8h3.51l1.172 1.172c.481.481 1.257.481 1.738 0L8.166 8h3.51c.318 0 .574.256.574.574zM9.957 11.48A.48.48 0 0 0 9.479 11a.48.48 0 0 0-.479.479.48.48 0 0 0 .479.478.48.48 0 0 0 .478-.478zm1 0a.48.48 0 0 0-.478-.479.48.48 0 0 0-.479.479.48.48 0 0 0 .479.478.48.48 0 0 0 .478-.478z"/>
</svg>
