<svg xmlns="http://www.w3.org/2000/svg" width="19" height="15" viewBox="0 0 19 15">
    <path fill="#212121" fill-rule="nonzero" d="M4.382 9.9h-2.7a.9.9 0 0 0-.9.9v2.7a.9.9 0 0 0 .9.9h2.7a.9.9 0 0 0 .9-.9v-2.7a.9.9 0 0 0-.9-.9zm-.675-2.25h5.4V9h1.35V7.65h5.4V9h1.35V7.38c0-.595-.484-1.08-1.08-1.08h-5.67V4.5h1.125a.9.9 0 0 0 .9-.9V.9a.9.9 0 0 0-.9-.9h-3.6a.9.9 0 0 0-.9.9v2.7a.9.9 0 0 0 .9.9h1.125v1.8h-5.67c-.595 0-1.08.485-1.08 1.08V9h1.35V7.65zm7.425 2.25h-2.7a.9.9 0 0 0-.9.9v2.7a.9.9 0 0 0 .9.9h2.7a.9.9 0 0 0 .9-.9v-2.7a.9.9 0 0 0-.9-.9zm6.75 0h-2.7a.9.9 0 0 0-.9.9v2.7a.9.9 0 0 0 .9.9h2.7a.9.9 0 0 0 .9-.9v-2.7a.9.9 0 0 0-.9-.9z"/>
</svg>
