<svg xmlns="http://www.w3.org/2000/svg" width="8" height="10" viewBox="0 0 8 10">
    <g fill="none" fill-rule="evenodd">
        <path fill="#FF512F" fill-rule="nonzero" d="M2.08 10C.75 6.337 3.56 5 3.56 5c-.196 1.954 1.132 3.477 1.132 3.477.489-.123 1.422-.7 1.422-.7 0 .7-.493 2.222-.493 2.222s1.723-1.114 2.266-2.963c.541-1.85-1.032-3.707-1.032-3.707.095 1.31-.435 2.597-1.473 3.58a.71.71 0 0 0 .129-.166c.186-.311.486-1.122.31-2.998C5.575 1.11 2.72 0 2.72 0 2.966 1.605 2.228 1.975.5 5.021-1.23 8.067 2.08 10 2.08 10z"/>
        <path d="M-5-5h18.522v20H-5z" opacity=".5"/>
    </g>
</svg>
