<svg xmlns="http://www.w3.org/2000/svg" width="25" height="16" viewBox="0 0 25 16">
    <g fill="none" fill-rule="evenodd">
        <path fill="#737373" d="M5 5h3.742v1.009H7.48v4.457h1.262v1.004H5v-1.004h1.23V6.009H5V5zm8.367 5.12h-1.942l-.382 1.35H9.728L11.848 5h1.133l2.08 6.47h-1.316l-.378-1.35zm-1.635-1.063h1.342l-.662-2.382-.68 2.382zm5.244.04v2.373h-1.25V5h2.214c.352 0 .67.051.955.153.285.103.527.245.727.427.2.182.354.4.462.655.108.255.162.538.162.85 0 .29-.054.557-.162.803a1.843 1.843 0 0 1-.462.638c-.2.18-.442.32-.727.42-.284.1-.603.151-.955.151h-.964zm0-1.013h.964c.178 0 .332-.027.462-.08a.892.892 0 0 0 .522-.535c.043-.12.065-.246.065-.376 0-.151-.022-.292-.065-.422a.92.92 0 0 0-.522-.573 1.16 1.16 0 0 0-.462-.085h-.964v2.07z"/>
        <path d="M0 0h25v16H0z" opacity=".5"/>
    </g>
</svg>
