<svg xmlns="http://www.w3.org/2000/svg" xmlns:xlink="http://www.w3.org/1999/xlink" width="32" height="32" viewBox="0 0 32 32">
    <defs>
        <path id="b" d="M25.235 10.67a7.06 7.06 0 0 1-2.03.556 3.55 3.55 0 0 0 1.554-1.955 7.128 7.128 0 0 1-2.246.859 3.536 3.536 0 0 0-6.025 3.223A10.038 10.038 0 0 1 9.2 9.66a3.509 3.509 0 0 0-.478 1.777c0 1.227.624 2.31 1.572 2.943a3.536 3.536 0 0 1-1.601-.444v.044a3.54 3.54 0 0 0 2.835 3.467c-.296.08-.608.124-.931.124-.229 0-.45-.023-.666-.066a3.538 3.538 0 0 0 3.302 2.456 7.094 7.094 0 0 1-4.39 1.51c-.286 0-.567-.017-.844-.048a9.994 9.994 0 0 0 5.42 1.591c6.504 0 10.059-5.387 10.059-10.06l-.012-.457a7.06 7.06 0 0 0 1.768-1.827z"/>
        <filter id="a" width="117.4%" height="121.4%" x="-8.7%" y="-10.7%" filterUnits="objectBoundingBox">
            <feOffset in="SourceAlpha" result="shadowOffsetOuter1"/>
            <feGaussianBlur in="shadowOffsetOuter1" result="shadowBlurOuter1" stdDeviation=".5"/>
            <feColorMatrix in="shadowBlurOuter1" values="0 0 0 0 0 0 0 0 0 0 0 0 0 0 0 0 0 0 0.08 0"/>
        </filter>
    </defs>
    <g fill="none" fill-rule="evenodd">
        <circle cx="16" cy="16" r="16" fill="#FFF"/>
        <g fill-rule="nonzero">
            <use fill="#000" filter="url(#a)" xlink:href="#b"/>
            <use fill="#212121" xlink:href="#b"/>
        </g>
    </g>
</svg>
